HIERARCHY
ROOT pelvis
{
  OFFSET 0 100 0
  CHANNELS 6 Xposition Yposition Zposition Zrotation Xrotation Yrotation
  JOINT pelvis_right_femur
  {
    OFFSET -10.78128 -3.44521 -0.5502486
    CHANNELS 3 Zrotation Xrotation Yrotation
    JOINT right_femur_tibia
    {
      OFFSET -0.8047443 -44.0398 -0.1307829
      CHANNELS 3 Zrotation Xrotation Yrotation
      JOINT right_tibia_foot
      {
        OFFSET 3.006224 -47.83518 -5
        CHANNELS 3 Zrotation Xrotation Yrotation
        End Site
        {
          OFFSET 0 -5 15
        }
      }
    }
  }
  JOINT pelvis_left_femur
  {
    OFFSET 10.78128 -3.44521 -0.5502486
    CHANNELS 3 Zrotation Xrotation Yrotation
    JOINT left_femur_tibia
    {
      OFFSET 0.8047443 -44.0398 -0.1307829
      CHANNELS 3 Zrotation Xrotation Yrotation
      JOINT left_tibia_foot
      {
        OFFSET -4.370144 -48.10324 -4.275266
        CHANNELS 3 Zrotation Xrotation Yrotation
        End Site
        {
          OFFSET 0 -5 15
        }
      }
    }
  }
  JOINT pelvis_spine1
  {
    OFFSET 0 6.468898 -3.129235
    CHANNELS 3 Zrotation Xrotation Yrotation
    JOINT spine1
    {
      OFFSET 0 23.15396 4.99043
      CHANNELS 3 Zrotation Xrotation Yrotation
      JOINT spine2
      {
        OFFSET 0 20.79997 -5.064912
        CHANNELS 3 Zrotation Xrotation Yrotation
        JOINT neck
        {
          OFFSET 0 14.38658 9.616178
          CHANNELS 3 Zrotation Xrotation Yrotation
          End Site
          {
            OFFSET 0 20 0
          }
        }
      }
      JOINT right_manubrium
      {
        OFFSET -5.722621 16.35077 3.967754
        CHANNELS 3 Zrotation Xrotation Yrotation
        JOINT right_clavicle
        {
          OFFSET -13.16364 1.694482 -4.693211
          CHANNELS 3 Zrotation Xrotation Yrotation
          JOINT right_humerus
          {
            OFFSET -28.5034 -0.3100689 -2.792744
            CHANNELS 3 Zrotation Xrotation Yrotation
            JOINT right_radius
            {
              OFFSET -25.15693 0.02248979 -1.271978
              CHANNELS 3 Zrotation Xrotation Yrotation
              End Site
              {
                OFFSET -15 0 0
              }
            }
          }
        }
      }
      JOINT left_manubrium
      {
        OFFSET 5.722621 16.35077 3.967754
        CHANNELS 3 Zrotation Xrotation Yrotation
        JOINT left_clavicle
        {
          OFFSET 13.16364 1.694482 -4.693211
          CHANNELS 3 Zrotation Xrotation Yrotation
          JOINT left_humerus
          {
            OFFSET 29.39168 -1.063119 -2.237045
            CHANNELS 3 Zrotation Xrotation Yrotation
            JOINT left_radius
            {
              OFFSET 24.59957 -0.9528479 0.9047498
              CHANNELS 3 Zrotation Xrotation Yrotation
              End Site
              {
                OFFSET 15 -0 -0
              }
            }
          }
        }
      }
    }
  }
}
MOTION
Frames: 21
Frame Time: 0.0416666666667
0 103.5113 0 2.73243 -0.8014477 0.2530108 1.9468 -13.27254 10.39589 -0 36.58934 -0 -6.037625 -16.79542 -3.317983 -8.221563 9.799884 -22.57401 -0 5.356939 -0 18.01746 -11.26166 29.19642 -5.372391 -4.690954 4.934121 2.926617 11.0505 -7.747225 1.386511 22.30429 5.657687 1.974615 -24.29956 9.108276 6.726562 -20.55734 12.00233 86.56461 38.60525 -18.85872 -0 0 14.73351 -7.408943 8.729596 5.828973 3.899478 -18.7731 -2.85695 -90.44439 21.42705 19.01013 0 0 -15.57534 14.58214 13.24928 -2.375841
0.2416758 104.5031 1.687609 2.477248 -0.7820297 0.490932 2.115177 -14.08328 10.06533 -0 37.64606 -0 -6.285907 -15.76396 -3.329122 -7.991135 9.480636 -22.04641 -0 5.762234 -0 17.65645 -11.44509 28.74318 -5.183474 -4.439852 4.792894 2.836456 11.1347 -7.830878 1.336806 22.22196 5.826432 2.061597 -24.21167 9.143409 6.83752 -20.42059 12.0552 86.5498 38.96048 -18.79005 -0 0 14.57857 -8.222726 9.41552 6.038186 3.979789 -19.02379 -2.879328 -90.10962 21.06475 18.72453 0 0 -15.65591 14.66519 13.35048 -2.454081
0.5369815 105.5288 3.39602 0.8627795 -0.1039627 0.4386996 4.01752 -17.52646 10.44161 -0 38.90818 -0 -6.68409 -15.40758 -3.359142 -6.875919 9.414414 -22.03844 -0 6.129255 -0 13.89102 -13.76555 27.9657 -3.829543 -4.167566 4.721247 2.887554 10.78146 -8.279983 1.282538 21.54867 6.231106 2.664643 -24.90995 9.066764 6.763924 -20.56866 12.07984 85.82834 37.24775 -18.70938 -0 0 16.30977 -7.531873 8.682733 5.167284 5.273971 -19.78728 -1.782079 -91.97 21.89188 20.64609 0 0 -14.83448 13.22496 14.86058 -0.9957953
0.8889517 106.4121 5.309223 -0.3793749 0.6009211 0.2676033 5.42992 -21.82657 10.04215 -0 37.58287 -0 -6.872134 -13.64136 -3.210499 -5.96437 9.403571 -21.1435 -0 6.310335 -0 10.45826 -16.48776 26.45457 -2.926935 -3.543901 4.615751 2.907668 10.49188 -8.61494 1.256001 20.7899 6.746631 3.311704 -25.34274 9.075337 6.784572 -20.30145 12.05132 85.28795 36.19201 -18.79858 -0 0 17.06478 -8.092311 9.079903 4.82834 6.641459 -20.78876 -0.9379401 -92.68373 22.06396 21.03846 0 0 -15.07137 12.16567 15.74132 -0.08477095
1.270163 106.9996 7.494515 -1.001534 1.362085 0.04063294 6.27683 -25.81787 9.316014 -0 33.06682 -0 -6.647515 -11.77196 -2.908914 -5.515806 9.864502 -20.19732 -0 6.158464 -0 7.677985 -19.34794 24.8862 -2.605273 -2.944192 4.638086 3.001149 10.13048 -8.757929 1.302168 20.08188 7.144775 3.887273 -25.67385 9.094422 6.782175 -19.8507 11.91501 84.93811 35.41873 -19.15097 -0 0 17.19408 -8.655432 9.571032 4.634305 7.895612 -21.63856 -0.2996758 -92.91779 22.27672 20.65857 0 0 -16.07073 11.16138 16.08213 0.6869116
1.648741 107.2346 10.06958 -1.133964 2.102758 -0.1415101 6.605657 -29.46752 8.101741 -0 26.62125 -0 -6.257934 -9.448474 -2.472878 -5.41179 10.67457 -19.03723 -0 6.097137 -0 5.508774 -22.06886 23.12473 -2.687389 -2.333986 4.665572 3.109161 9.762669 -8.757586 1.374706 19.48208 7.43273 4.362067 -25.82563 9.077772 6.741174 -19.21859 11.70599 84.85228 35.03126 -19.69343 -0 0 16.67457 -9.422055 10.18829 4.646514 8.904903 -22.34304 0.02595453 -92.53305 22.2631 19.51412 0 0 -17.64757 10.41597 15.91847 1.138206
1.996446 107.1647 13.17306 -0.9684556 2.739605 -0.1651947 6.535515 -32.46449 6.46663 -0 19.74242 -0 -5.928654 -6.75075 -1.985392 -5.505909 11.77089 -17.66752 -0 6.534857 -0 3.76819 -24.23984 21.09795 -2.921635 -1.767792 4.579078 3.200967 9.423303 -8.699746 1.416088 19.06506 7.603015 4.691445 -25.77929 8.968001 6.599071 -18.47471 11.45335 85.11342 34.91666 -20.39984 -0 0 15.61498 -10.33182 10.73623 4.850039 9.508935 -22.84619 -0.03013856 -91.659 22.00434 17.92603 0 0 -19.4827 9.877068 15.3571 1.405806
2.294964 106.938 16.92902 -0.7669252 3.220886 0.05443787 6.314923 -34.4476 4.716693 -0 14.03769 -0 -5.868085 -4.028987 -1.536265 -5.608791 13.02347 -16.19302 -0 7.916331 -0 2.208249 -25.36453 18.7941 -3.007693 -1.343249 4.298308 3.257298 9.148041 -8.683962 1.37859 18.86407 7.669822 4.855656 -25.59154 8.745927 6.310917 -17.72476 11.19363 85.73565 34.86496 -21.22893 -0 0 14.23857 -11.23194 11.03064 5.165005 9.620687 -23.11087 -0.4383282 -90.58168 21.56106 16.37051 0 0 -21.15143 9.479686 14.57509 1.63107
2.538054 106.7594 21.41341 -0.7567862 3.521375 0.5268955 6.221508 -35.17219 3.274485 -0 10.63199 -0 -6.159118 -1.694502 -1.224182 -5.551208 14.23619 -14.73429 -0 10.64495 -0 0.5908632 -25.04571 16.25858 -2.720868 -1.145959 3.82816 3.268535 8.973374 -8.787146 1.239949 18.84093 7.680146 4.871485 -25.35129 8.440152 5.895304 -17.0522 10.96692 86.64301 34.69746 -22.14289 -0 0 12.77526 -12.03155 11.09729 5.513886 9.279968 -23.16465 -1.068421 -89.57614 21.07641 15.23591 0 0 -22.3571 9.116408 13.7491 1.974854
2.73159 106.8235 26.62715 -1.018459 3.607099 1.160684 6.40932 -34.57885 2.466958 -0 9.70487 -0 -6.702498 -0.0283719 -1.137986 -5.256784 15.15391 -13.37751 -0 15.02071 -0 -1.163334 -23.15967 13.67087 -2.019579 -1.201483 3.289487 3.229765 8.940881 -9.012734 1.018094 18.90012 7.687086 4.78521 -25.12216 8.106783 5.445668 -16.49195 10.81731 87.67814 34.35002 -23.0952 -0 0 11.40018 -12.76334 11.18328 5.854833 8.648621 -23.10611 -1.739489 -88.788 20.66716 14.64615 0 0 -23.05977 8.707585 12.98473 2.518845
2.888822 107.2671 32.48586 -1.460579 3.40256 1.783521 6.841713 -32.74525 2.358688 -0 10.56767 -0 -7.279527 0.9055725 -1.319287 -4.757349 15.45867 -12.14882 -0 21.22475 -0 -2.946103 -19.93339 11.34091 -1.045296 -1.43599 2.876856 3.135697 9.094304 -9.274688 0.7658681 18.9537 7.713347 4.652934 -24.90051 7.79066 5.085053 -16.04529 10.7914 88.64922 33.86722 -23.99685 -0 0 10.23451 -13.5434 11.57693 6.180787 7.922816 -23.05545 -2.311686 -88.23665 20.3514 14.49094 0 0 -23.39784 8.234395 12.30491 3.235901
3.019302 108.1635 38.81989 -1.896301 2.805716 2.200324 7.361057 -29.78317 2.764008 -0 12.17916 -0 -7.700973 1.159272 -1.719838 -4.144451 14.75312 -11.03682 -0 29.25308 -0 -4.56423 -15.88071 9.601555 -0.02898776 -1.677423 2.770908 2.980834 9.458572 -9.428344 0.5502773 18.99055 7.734891 4.523045 -24.62854 7.502977 4.893523 -15.72344 10.92497 89.3723 33.33425 -24.67376 -0 0 9.39738 -14.45127 12.36888 6.496791 7.232322 -23.07667 -2.743351 -87.91942 20.09559 14.62581 0 0 -23.46025 7.721829 11.70415 4.041509
3.11943 109.5312 45.38459 -2.140179 1.748626 2.264168 7.771447 -25.79131 3.355559 -0 13.58718 -0 -7.905133 0.7566844 -2.1991 -3.514151 12.60429 -10.0214 -0 38.70444 -0 -5.849059 -11.66724 8.67536 0.7962149 -1.709887 3.071037 2.762909 10.00619 -9.327537 0.4256048 19.09441 7.70067 4.428475 -24.23297 7.225695 4.864093 -15.57103 11.22117 89.69825 32.83218 -24.87815 -0 0 9.018759 -15.46165 13.36433 6.817198 6.604278 -23.14035 -3.081521 -87.87583 19.90627 15.01971 0 0 -23.1822 7.191451 11.19291 4.885359
3.17615 111.324 51.89904 -2.065618 0.2695791 1.938229 7.875865 -20.8875 3.777745 -0 14.09806 -0 -7.929865 -0.3242563 -2.572667 -2.943058 8.707135 -9.080362 -0 48.51893 -0 -6.694387 -7.970943 8.59775 1.234017 -1.373484 3.775563 2.48611 10.63699 -8.885676 0.4108714 19.39629 7.571227 4.384586 -23.65246 6.928994 4.911635 -15.65197 11.63632 89.53595 32.43312 -24.3792 -0 0 9.185427 -16.48842 14.19711 7.185987 6.000343 -23.15288 -3.406835 -88.14528 19.85428 15.74293 0 0 -22.47371 6.622121 10.78988 5.8156
3.185325 113.409 58.12864 -1.634447 -1.433842 1.321908 7.529335 -15.2682 3.784737 -0 13.38788 -0 -7.805333 -2.035804 -2.688804 -2.475633 3.129116 -8.190294 -0 56.94777 -0 -7.063536 -5.324364 9.217273 1.16349 -0.6842416 4.790033 2.164841 11.20259 -8.130664 0.4846781 19.97661 7.345397 4.382247 -22.86552 6.595138 4.922538 -16.02015 12.08335 88.86947 32.18398 -23.08587 -0 0 9.883371 -17.48497 14.56763 7.696957 5.389092 -23.0215 -3.754207 -88.68541 20.01908 16.86369 0 0 -21.42656 5.94263 10.49132 6.965602
3.169834 115.5781 63.98375 -0.9272624 -3.011997 0.6047438 6.737308 -9.25515 3.402349 -0 11.68433 -0 -7.469877 -4.13652 -2.501897 -2.095083 -3.525431 -7.333331 -0 62.02123 -0 -7.016475 -3.931925 10.27744 0.6146719 0.1009543 5.942932 1.825223 11.58693 -7.225896 0.6074652 20.75546 7.053672 4.372129 -21.93754 6.249115 4.824408 -16.69922 12.45962 87.75 32.05607 -21.11419 -0 0 11.01422 -18.50998 14.49579 8.482874 4.809583 -22.71319 -4.037693 -89.3481 20.41524 18.34174 0 0 -20.38099 5.068309 10.26074 8.441854
3.175167 117.6051 69.54951 -0.160312 -4.091596 -0.05170042 5.725614 -3.318813 2.967178 -0 9.759564 -0 -6.809169 -6.242375 -2.103223 -1.688941 -10.24967 -6.48512 -0 62.40761 -0 -6.722889 -3.5829 11.55716 -0.1763899 0.6010202 7.007436 1.496409 11.78495 -6.402999 0.7589019 21.46982 6.719808 4.25712 -21.03907 5.971347 4.631084 -17.67426 12.69276 86.26217 31.90337 -18.71368 -0 0 12.49074 -19.68449 14.38245 9.652321 4.374516 -22.26433 -4.06084 -89.95069 20.97629 19.96661 0 0 -19.73486 3.970178 10.05215 10.1722
3.239972 119.2887 74.98446 0.3744691 -4.496435 -0.6100951 4.881367 1.975164 2.858486 -0 8.40238 -0 -5.844276 -8.155934 -1.665539 -1.055837 -16.11596 -5.582529 -0 57.96652 -0 -6.38282 -3.822828 12.96311 -0.8471823 0.6281525 7.74859 1.197131 11.84978 -5.801471 0.9425292 21.84525 6.335521 3.932082 -20.35682 5.848207 4.398975 -18.87626 12.76465 84.49417 31.52254 -16.0553 -0 0 14.30492 -21.02274 14.64957 11.19421 4.188535 -21.70848 -3.67332 -90.40521 21.62735 21.40119 0 0 -19.57997 2.726089 9.853644 11.86894
3.370046 120.4345 80.36702 0.4655679 -4.349843 -1.13528 4.557119 6.176219 3.040797 -0 7.661075 -0 -4.913263 -10.21634 -1.292493 0.005556486 -20.76999 -4.537495 -0 49.46774 -0 -6.08403 -4.292362 14.45245 -1.122715 0.4307819 7.999752 0.9352952 11.70742 -5.354401 1.127476 21.8664 5.908166 3.381956 -19.93911 5.879343 4.124539 -20.14685 12.68253 82.52722 30.88941 -13.07114 -0 0 16.44364 -22.29145 15.19622 12.91918 4.249064 -20.98961 -2.953721 -90.77565 22.34442 22.3438 0 0 -19.49007 1.51565 9.726205 13.17305
3.54175 120.8673 85.66535 0.1161774 -3.907166 -1.70802 4.821946 9.217621 2.949609 -0 6.759053 -0 -4.568975 -13.08071 -0.9019241 1.549816 -24.44883 -3.333465 -0 38.17726 -0 -5.734852 -4.857098 15.86768 -0.9874499 0.4966258 7.733311 0.7156187 11.13431 -4.896549 1.207306 21.81545 5.549137 2.767912 -19.64459 5.958493 3.753458 -21.2218 12.44826 80.41626 30.44997 -9.600119 -0 0 18.69706 -23.21322 15.42939 14.52912 4.445786 -20.03018 -2.189411 -91.11678 23.02037 22.65533 0 0 -18.76903 0.6017546 9.79633 13.78665
3.732262 120.5552 90.89145 -0.4414038 -3.324693 -2.378062 5.285734 11.50424 2.085997 -0 5.06134 -0 -5.093208 -16.77579 -0.3491146 3.318314 -27.45115 -2.153487 -0 26.1766 -0 -5.158396 -5.408059 16.97536 -0.693091 0.9898008 7.134839 0.5299519 10.08614 -4.405918 1.090592 21.94459 5.462285 2.398674 -19.2665 5.983156 3.343943 -21.81343 12.08056 78.18076 30.99178 -5.804673 -0 0 20.60523 -23.94009 15.00287 15.80265 4.676598 -18.94345 -1.638495 -91.25764 23.25929 22.36324 0 0 -17.04113 0.3033253 10.13991 13.48306
